<?xml version="1.0" standalone="no"?>
<!DOCTYPE svg PUBLIC "-//W3C//DTD SVG 20010904//EN"
 "http://www.w3.org/TR/2001/REC-SVG-20010904/DTD/svg10.dtd">
<svg version="1.0" xmlns="http://www.w3.org/2000/svg"
 width="1224.000000pt" height="1224.000000pt" viewBox="0 0 1224.000000 1224.000000"
 preserveAspectRatio="xMidYMid meet">
<metadata>
Created by potrace 1.11, written by Peter Selinger 2001-2013
</metadata>
<g transform="translate(0.000000,1224.000000) scale(0.100000,-0.100000)"
fill="#000000" stroke="none">
<path d="M7910 12095 c-215 -28 -415 -83 -599 -164 -63 -28 -118 -48 -124 -44
-6 3 -7 1 -4 -4 4 -6 -1 -14 -11 -18 -29 -11 -183 -106 -254 -157 -38 -26 -73
-47 -80 -45 -7 1 -12 -4 -13 -11 0 -18 -35 -43 -48 -35 -6 3 -7 1 -4 -4 4 -6
-52 -57 -124 -114 -73 -57 -168 -134 -212 -171 -45 -37 -86 -64 -92 -61 -5 4
-7 3 -3 -2 4 -4 -27 -34 -70 -66 -42 -33 -90 -71 -107 -85 -39 -33 -252 -196
-273 -209 -9 -5 -21 -15 -27 -22 -5 -6 -32 -28 -60 -49 -27 -21 -79 -60 -115
-88 -36 -28 -103 -79 -150 -114 -47 -36 -97 -74 -111 -86 -15 -11 -39 -30 -55
-41 -15 -11 -42 -32 -59 -46 -29 -25 -233 -179 -518 -391 -31 -24 -63 -48 -71
-55 -8 -7 -86 -65 -173 -130 -88 -65 -211 -157 -274 -204 -63 -47 -140 -104
-171 -127 l-58 -43 0 -1399 0 -1400 21 0 c12 0 68 43 136 103 63 56 125 108
137 116 11 8 33 25 47 38 14 13 29 20 33 16 4 -5 6 -2 4 4 -4 16 143 122 291
210 62 37 116 68 120 68 3 0 13 5 21 10 43 27 186 90 303 134 192 72 402 122
637 152 145 19 531 17 675 -4 388 -55 754 -186 1075 -386 128 -79 196 -130
192 -143 -1 -5 2 -7 7 -4 16 10 157 -109 306 -259 134 -133 275 -295 258 -295
-4 0 3 -7 15 -16 14 -9 21 -22 18 -31 -3 -8 -1 -11 4 -8 6 3 13 -2 17 -12 4
-10 13 -24 20 -31 39 -40 179 -288 174 -311 -1 -7 2 -10 7 -7 11 7 107 -210
156 -354 149 -440 182 -919 95 -1379 -31 -166 -90 -379 -135 -491 -14 -36 -35
-87 -46 -115 -81 -201 -346 -633 -372 -607 -4 4 -6 2 -4 -4 5 -16 -75 -114
-89 -109 -7 2 -10 -2 -7 -8 2 -7 -42 -58 -98 -112 -120 -117 -198 -188 -198
-182 0 3 -15 -9 -32 -26 -62 -57 -315 -220 -330 -211 -6 4 -8 3 -5 -3 13 -21
-304 -170 -506 -237 -563 -188 -1239 -190 -1782 -4 -180 62 -515 217 -515 240
0 4 -6 8 -13 8 -17 0 -198 124 -302 208 -113 91 -206 182 -199 194 4 6 3 8 -3
5 -16 -10 -243 234 -243 262 0 6 -4 11 -9 11 -5 0 -40 46 -78 103 -256 377
-396 732 -470 1197 -16 97 -18 399 -23 3858 l-5 3752 -907 3 c-598 1 -909 -1
-911 -8 -2 -5 -4 -1702 -3 -3770 1 -3459 2 -3772 18 -3905 63 -546 196 -1026
409 -1479 27 -57 46 -108 42 -114 -4 -6 -1 -7 7 -2 10 6 12 4 7 -9 -4 -9 -3
-15 1 -12 4 2 21 -21 37 -52 169 -331 451 -729 706 -996 55 -58 98 -110 95
-115 -3 -5 2 -8 12 -7 10 0 16 -6 16 -16 -1 -10 3 -15 8 -12 13 8 159 -136
151 -149 -3 -6 -1 -7 6 -3 7 5 41 -18 84 -56 39 -35 97 -83 127 -108 30 -25
57 -48 58 -52 2 -5 8 -8 14 -8 6 0 38 -22 72 -48 60 -47 251 -178 311 -212 17
-10 71 -41 120 -70 682 -397 1477 -610 2281 -610 856 0 1671 235 2414 698 58
36 140 90 182 119 44 31 83 51 89 47 7 -4 9 -3 6 3 -9 14 19 37 34 27 7 -4 9
-3 6 3 -8 13 120 116 133 108 6 -4 9 -2 8 3 -2 6 49 54 112 108 134 115 365
342 471 464 41 47 76 87 79 90 3 3 30 37 60 75 30 39 58 75 63 80 41 49 287
410 287 422 0 3 23 44 51 91 28 48 87 161 131 252 85 177 89 184 113 245 369
911 429 1878 180 2875 -147 589 -393 1113 -756 1610 -233 320 -683 764 -961
950 -21 14 -38 28 -38 33 0 4 -4 7 -8 7 -9 0 -191 119 -224 146 -10 7 -18 12
-18 9 0 -2 -37 19 -82 47 -110 67 -421 223 -578 288 -126 53 -383 143 -497
175 -35 10 -60 21 -57 26 3 5 -2 6 -10 3 -9 -3 -66 9 -128 26 -190 54 -282 81
-297 86 -9 3 1 16 30 36 24 17 56 43 72 57 15 13 27 22 27 18 0 -3 11 5 25 19
14 14 30 22 35 19 6 -4 9 -2 8 3 -3 9 54 62 66 62 4 0 19 11 34 25 15 14 33
23 40 20 7 -3 11 -1 8 4 -4 5 38 42 91 83 54 40 127 97 163 126 35 29 70 50
78 47 7 -2 11 -1 7 4 -6 11 126 112 137 105 5 -3 7 -1 6 4 -5 14 60 64 73 56
7 -4 9 -3 6 3 -8 13 257 214 269 205 5 -4 6 -3 2 2 -4 5 11 23 35 40 23 16 58
43 77 58 19 16 40 32 45 36 6 4 50 38 98 75 48 37 92 65 98 62 5 -4 8 -2 7 4
-2 6 44 47 102 90 58 44 110 84 115 89 6 5 78 59 160 121 83 63 160 122 171
133 12 10 28 18 35 16 8 -2 13 2 12 8 -1 7 17 25 40 40 23 16 47 34 52 40 6 6
93 74 195 151 102 77 243 184 314 238 71 54 161 122 200 151 39 30 87 66 106
82 19 15 40 26 47 26 7 -1 11 2 8 6 -8 12 23 33 36 24 7 -4 9 -3 6 3 -4 6 2
18 13 28 11 10 20 16 20 13 0 -4 13 6 28 21 16 14 49 39 73 56 24 16 56 40 71
53 16 14 31 21 39 17 7 -5 10 -4 5 3 -3 6 20 29 54 54 54 39 59 46 60 81 l0
37 -1187 -1 c-882 -1 -1212 -5 -1283 -14z"/>
</g>
</svg>
